<svg xmlns="http://www.w3.org/2000/svg" viewBox="0 0 32 32" width="32" height="32">
  <defs>
    <linearGradient id="grad1" x1="0%" y1="0%" x2="100%" y2="100%">
      <stop offset="0%" style="stop-color:#4f46e5;stop-opacity:1" />
      <stop offset="100%" style="stop-color:#7c3aed;stop-opacity:1" />
    </linearGradient>
  </defs>
  
  <!-- Background circle -->
  <circle cx="16" cy="16" r="15" fill="url(#grad1)" stroke="#ffffff" stroke-width="1"/>
  
  <!-- Brain icon -->
  <path d="M12 8c-1.1 0-2 .9-2 2 0 .3.1.6.2.9C9.4 11.2 9 11.9 9 12.7c0 .8.4 1.5 1 1.9v.9c0 1.1.9 2 2 2h8c1.1 0 2-.9 2-2v-.9c.6-.4 1-1.1 1-1.9 0-.8-.4-1.5-1.2-1.8.1-.3.2-.6.2-.9 0-1.1-.9-2-2-2-1.1 0-2 .9-2 2 0 .2 0 .4.1.6-.3-.4-.7-.6-1.1-.6s-.8.2-1.1.6c.1-.2.1-.4.1-.6 0-1.1-.9-2-2-2z" fill="#ffffff" opacity="0.9"/>
  
  <!-- Pencil/Note icon -->
  <path d="M11 20h10v1H11v-1zm0 2h8v1h-8v-1zm0 2h6v1h-6v-1z" fill="#ffffff" opacity="0.8"/>
  
  <!-- Small sparkle -->
  <circle cx="24" cy="8" r="1.5" fill="#fbbf24" opacity="0.9"/>
  <path d="M24 6v4M22 8h4" stroke="#fbbf24" stroke-width="0.5" opacity="0.9"/>
</svg>